OpenSim_Sub01_CSBaseline_LCS.mot
version=1
nRows=71
nColumns=11
inDegrees=no
endheader
time	Bot_Shank	2nd_Bot_Shank	2nd_Top_Shank	Top_Shank	Bot_Thigh	Med_Thigh	Top_Thigh	BNOx	BNOy	BNOZ
0	9415.17869615	9978.98730619	10611.27132719	10596.14128280	13299.98191837	14520.30136607	15327.94134770	195.43669579	-80.38064960	143.06587639
0.01000000	9415.59633435	9978.63711976	10611.90300222	10596.24020584	13300.17909408	14521.36536351	15327.95792366	195.42525368	-80.38464402	143.08734761
0.02000000	9415.78267021	9977.89120395	10612.15835880	10595.85745299	13300.70930408	14522.48683935	15328.26028494	195.41355553	-80.39093098	143.11040274
0.03000000	9415.79322704	9976.85119678	10612.09386902	10595.11127902	13301.49032323	14523.62148011	15328.79560909	195.40212642	-80.39883033	143.13332868
0.04000000	9415.68352818	9975.61873628	10611.76600498	10594.11993870	13302.43992640	14524.72497231	15329.51107367	195.39149144	-80.40766188	143.15441231
0.05000000	9415.50909695	9974.29546046	10611.23123877	10593.00168681	13303.47588845	14525.75300245	15330.35385626	195.38217565	-80.41674550	143.17194052
0.06000000	9415.32545666	9972.98300734	10610.54604249	10591.87477811	13304.51598425	14526.66125704	15331.27113440	195.37470413	-80.42540100	143.18420019
0.07000000	9415.18813064	9971.78301494	10609.76688822	10590.85746738	13305.47798866	14527.40542260	15332.21008566	195.36960197	-80.43294824	143.18947822
0.08000000	9415.15264222	9970.79712129	10608.95024806	10590.06800939	13306.27967654	14527.94118563	15333.11788760	195.36739423	-80.43870704	143.18606148
0.09000000	9415.27451471	9970.12696441	10608.15259411	10589.62465892	13306.83882277	14528.22423265	15333.94171779	195.36860600	-80.44199726	143.17223687
0.10000000	9415.60927143	9969.87418231	10607.43039846	10589.64567074	13307.07320220	14528.21025017	15334.62875377	195.37376235	-80.44213871	143.14629128
0.11000000	9416.21233097	9970.13923894	10606.83969924	10590.24794817	13306.90152684	14527.85568396	15335.12643948	195.38338502	-80.43845487	143.10652772
0.12000000	9417.13100768	9970.93175915	10606.40295879	10591.44383293	13306.31501566	14527.17572514	15335.40282676	195.39773716	-80.43054873	143.05249783
0.13000000	9418.39887871	9972.10738926	10606.08572614	10593.06842752	13305.42779193	14526.28514214	15335.46089935	195.41664364	-80.41849718	142.98586972
0.14000000	9420.04819053	9973.50686040	10605.84803741	10594.93966610	13304.36588412	14525.30834904	15335.30702467	195.43988687	-80.40242298	142.90851653
0.15000000	9422.11118962	9974.97090369	10605.64992870	10596.87548287	13303.25532066	14524.36975987	15334.94757016	195.46724924	-80.38244893	142.82231136
0.16000000	9424.62012248	9976.34025028	10605.45143613	10598.69381198	13302.22213000	14523.59378871	15334.38890324	195.49851316	-80.35869780	142.72912736
0.17000000	9427.60723559	9977.45563129	10605.21259580	10600.21258762	13301.39234060	14523.10484959	15333.63739134	195.53346105	-80.33129236	142.63083764
0.18000000	9431.10373297	9978.15886527	10604.89379097	10601.25099384	13300.89109565	14523.02626466	15332.69956969	195.57187092	-80.30036092	142.52931755
0.19000000	9435.06016349	9978.37590467	10604.48226288	10601.72491831	13300.77504571	14523.39687465	15331.59495687	195.61318246	-80.26645780	142.42661340
0.20000000	9439.29035992	9978.17531468	10604.01077898	10601.71416808	13300.98474159	14524.11231841	15330.36507916	195.65626182	-80.23085956	142.32506139
0.21000000	9443.59491201	9977.63947476	10603.51651658	10601.31442829	13301.44948809	14525.05436347	15329.05359459	195.69991958	-80.19491271	142.22702577
0.22000000	9447.77440949	9976.85076433	10603.03665304	10600.62138407	13302.09858996	14526.10477741	15327.70416122	195.74296634	-80.15996374	142.13487080
0.23000000	9451.62944209	9975.89156284	10602.60836570	10599.73072056	13302.86135199	14527.14532778	15326.36043709	195.78421268	-80.12735917	142.05096074
0.24000000	9454.96059953	9974.84424973	10602.26883189	10598.73812290	13303.66707897	14528.05778212	15325.06608025	195.82246921	-80.09844550	141.97765983
0.25000000	9457.56847157	9973.79120443	10602.05522895	10597.73927622	13304.44507565	14528.72390800	15323.86474875	195.85654650	-80.07456923	141.91733235
0.26000000	9459.25411316	9972.81469522	10602.00465067	10596.82973561	13305.12474256	14529.02573178	15322.80002939	195.88525761	-80.05707375	141.87233650
0.27000000	9459.91720953	9971.97342446	10602.13647732	10596.07748519	13305.65577689	14528.90014960	15321.90040534	195.90793786	-80.04663934	141.84375034
0.28000000	9459.67750301	9971.27351577	10602.43056799	10595.48899457	13306.03316034	14528.40647923	15321.16066154	195.92508781	-80.04246688	141.82979571
0.29000000	9458.68451110	9970.71397854	10602.86143430	10595.06241007	13306.25800195	14527.62060289	15320.57102338	195.93736567	-80.04355709	141.82830796
0.30000000	9457.08775132	9970.29382215	10603.40358786	10594.79587802	13306.33141072	14526.61840283	15320.12171621	195.94542966	-80.04891065	141.83712247
0.31000000	9455.03674116	9970.01205599	10604.03154029	10594.68754471	13306.25449567	14525.47576127	15319.80296541	195.94993800	-80.05752828	141.85407461
0.32000000	9452.68099813	9969.86768946	10604.71980320	10594.73555647	13306.02836581	14524.26856044	15319.60499634	195.95154890	-80.06841068	141.87699974
0.33000000	9450.17003974	9969.85973193	10605.44288821	10594.93805962	13305.65413018	14523.07268257	15319.51803437	195.95092060	-80.08055854	141.90373323
0.34000000	9447.65338348	9969.98719280	10606.17530693	10595.29320046	13305.13289777	14521.96400990	15319.53230487	195.94871130	-80.09297258	141.93211044
0.35000000	9445.28054687	9970.24908146	10606.89157097	10595.79912531	13304.46577760	14521.01842464	15319.63803320	195.94557922	-80.10465349	141.95996675
0.36000000	9443.20104740	9970.64440728	10607.56619196	10596.45398048	13303.65387870	14520.31180904	15319.82544474	195.94218258	-80.11460198	141.98513752
0.37000000	9441.56358320	9971.17204076	10608.17382923	10597.25581996	13302.69859865	14519.91946630	15320.08483035	195.93917624	-80.12182598	142.00547139
0.38000000	9440.45345608	9971.82010551	10608.70057171	10598.19555395	13301.62366176	14519.87189987	15320.41154966	195.93695433	-80.12589336	142.01984393
0.39000000	9439.84850672	9972.55850843	10609.15188226	10599.25198339	13300.49063770	14520.12367454	15320.80955415	195.93546908	-80.12732109	142.02887142
0.40000000	9439.71616656	9973.35539189	10609.53510042	10600.40273630	13299.36476204	14520.62199930	15321.28362752	195.93462993	-80.12671807	142.03333876
0.41000000	9440.02386703	9974.17889822	10609.85756571	10601.62544069	13298.31127035	14521.31408310	15321.83855352	195.93434629	-80.12469322	142.03403086
0.42000000	9440.73903955	9974.99716977	10610.12661765	10602.89772456	13297.39539820	14522.14713493	15322.47911586	195.93452760	-80.12185544	142.03173260
0.43000000	9441.82911556	9975.77834888	10610.34959579	10604.19721590	13296.68238117	14523.06836375	15323.21009827	195.93508327	-80.11881364	142.02722888
0.44000000	9443.26152649	9976.49057792	10610.53383965	10605.50154274	13296.23745481	14524.02497853	15324.03628448	195.93592274	-80.11617672	142.02130461
0.45000000	9445.00370377	9977.10199921	10610.68668875	10606.78833306	13296.12585471	14524.96418825	15324.96245821	195.93695542	-80.11455358	142.01474469
0.46000000	9447.02307883	9977.58075512	10610.81548262	10608.03521487	13296.41281642	14525.83320188	15325.99340319	195.93809075	-80.11455315	142.00833400
0.47000000	9449.28708310	9977.89498798	10610.92756080	10609.21981618	13297.16357553	14526.57922838	15327.13390314	195.93923814	-80.11678431	142.00285746
0.48000000	9451.76261910	9978.01329340	10611.03016083	10610.31991385	13298.44199501	14527.15005215	15328.38837990	195.94030696	-80.12185056	141.99909383
0.49000000	9454.37566697	9977.93933557	10611.12262996	10611.32480152	13300.20573986	14527.53797773	15329.73325564	195.94120041	-80.12993574	141.99734819
0.50000000	9456.98284062	9977.73622238	10611.19094088	10612.24329457	13302.23246216	14527.81077443	15331.09749119	195.94181135	-80.14051238	141.99712266
0.51000000	9459.43403477	9977.47281973	10611.21977072	10613.08609940	13304.28237700	14528.04352149	15332.40545000	195.94203164	-80.15298411	141.99784160
0.52000000	9461.57914414	9977.21799354	10611.19379662	10613.86392238	13306.11569945	14528.31129812	15333.58149554	195.94175312	-80.16675454	141.99892934
0.53000000	9463.26806344	9977.04060973	10611.09769572	10614.58746988	13307.49264457	14528.68918355	15334.54999127	195.94086763	-80.18122731	141.99981023
0.54000000	9464.35362328	9977.00840598	10610.91656847	10615.26721253	13308.17765442	14529.25065615	15335.23698477	195.93927515	-80.19580556	141.99990373
0.55000000	9464.80278626	9977.14526053	10610.65197188	10615.90445626	13308.09949483	14530.00696043	15335.63399379	195.93719146	-80.20987382	141.99843952
0.56000000	9464.73077659	9977.41807657	10610.32684059	10616.48860175	13307.40039398	14530.88849696	15335.81758416	195.93524262	-80.22279239	141.99440074
0.57000000	9464.26272699	9977.78994959	10609.96553792	10617.00825400	13306.23684614	14531.82026338	15335.87000561	195.93408209	-80.23391997	141.98675404
0.58000000	9463.52377022	9978.22397507	10609.59242721	10617.45201805	13304.76534556	14532.72725733	15335.87350786	195.93436335	-80.24261528	141.97446608
0.59000000	9462.63903903	9978.68324847	10609.23187181	10617.80849891	13303.14238648	14533.53447643	15335.91034065	195.93673985	-80.24823700	141.95650353
0.60000000	9461.73314568	9979.13099448	10608.90812185	10618.06645566	13301.52383101	14534.16732858	15336.06221975	195.94185932	-80.25014921	141.93184682
0.61000000	9460.89043226	9979.54043420	10608.63666933	10618.22656772	13300.01663060	14534.58296361	15336.36954914	195.94992561	-80.24813245	141.90054272
0.62000000	9460.12698014	9979.90173331	10608.41816061	10618.30972025	13298.64482983	14534.79233615	15336.80270639	195.96039009	-80.24267316	141.86444552
0.63000000	9459.45225861	9980.20669886	10608.25180403	10618.33875566	13297.42444249	14534.81161263	15337.32528596	195.97263128	-80.23432614	141.82558455
0.64000000	9458.87573692	9980.44713790	10608.13680791	10618.33651635	13296.37148235	14534.65695948	15337.90088230	195.98602768	-80.22364621	141.78598919
0.65000000	9458.40688435	9980.61485748	10608.07238058	10618.32584474	13295.50196318	14534.34454315	15338.49308986	195.99995781	-80.21118819	141.74768879
0.66000000	9458.05517019	9980.70166463	10608.05773037	10618.32958322	13294.83189877	14533.89053007	15339.06550310	196.01380016	-80.19750689	141.71271270
0.67000000	9457.83006369	9980.69936641	10608.09206562	10618.37057422	13294.37730288	14533.31108668	15339.58171647	196.02693324	-80.18315713	141.68309028
0.68000000	9457.74103414	9980.59976986	10608.17459466	10618.47166013	13294.15418930	14532.62237941	15340.00532441	196.03873557	-80.16869371	141.66085088
0.69000000	9457.79755081	9980.39468202	10608.30452580	10618.65568336	13294.17857181	14531.84057470	15340.29992139	196.04858564	-80.15467145	141.64802387
0.70000000	9458.00908297	9980.07590994	10608.48106740	10618.94548632	13294.46646417	14530.98183900	15340.42910185	196.05586197	-80.14164518	141.64663861
